
<?xml version="1.0" encoding="UTF-8" standalone="no"?><!DOCTYPE svg PUBLIC "-//W3C//DTD SVG 1.1//EN" "http://www.w3.org/Graphics/SVG/1.1/DTD/svg11.dtd"><svg width="100%" height="100%" viewBox="0 0 473 473" version="1.1" xmlns="http://www.w3.org/2000/svg" xmlns:xlink="http://www.w3.org/1999/xlink" xml:space="preserve" xmlns:serif="http://www.serif.com/" style="fill-rule:evenodd;clip-rule:evenodd;stroke-linejoin:round;stroke-miterlimit:2;"><circle cx="236.22" cy="236.22" r="236.22" style="fill:#d1b492;"/><circle cx="236.22" cy="236.22" r="206.693" style="fill:#f1ebdf;"/><path d="M271.364,162.299c0,19.397 -15.747,35.144 -35.144,35.144c-19.396,0 -35.143,-15.747 -35.143,-35.144c-0,-19.396 15.747,-35.143 35.143,-35.143c19.397,-0 35.144,15.747 35.144,35.143Z" style="fill:#635240;"/><path d="M127.418,156.553l0,84.329l102.552,87.352l0,-82.99l-102.552,-88.691Z" style="fill:#d1b492;"/><path d="M345.023,156.553l-0,84.329l-102.553,87.352l0,-82.99l102.553,-88.691Z" style="fill:#635240;"/><path d="M315.839,133.31c-1.222,5.155 0.56,10.787 5.014,14.249c6.081,4.726 14.854,3.626 19.58,-2.455c4.726,-6.081 3.627,-14.855 -2.454,-19.581c-4.161,-3.233 -9.582,-3.739 -14.104,-1.789l-83.703,-68.312c-2.314,-1.889 -5.642,-1.876 -7.941,0.031l-98.705,81.857c-2.655,2.202 -3.023,6.146 -0.821,8.801c2.202,2.655 6.145,3.023 8.8,0.821l94.747,-78.575l79.587,64.953Z" style="fill:#635240;"/><g><path d="M115.795,328.785l9.92,0l0,23.62l0.473,-0l23.068,-23.62l13.385,0l-26.06,25.746l27.792,29.997l-13.936,-0l-24.17,-27.399l-0.552,-0l0,27.399l-9.92,-0l0,-55.743Z" style="fill:#635240;fill-rule:nonzero;"/><rect x="170.421" y="346.736" width="9.448" height="37.792" style="fill:#635240;"/><path d="M169.083,333.903c0,-1.522 0.564,-2.848 1.693,-3.976c1.128,-1.129 2.559,-1.693 4.291,-1.693c1.732,0 3.188,0.538 4.369,1.614c1.181,1.076 1.772,2.428 1.772,4.055c-0,1.627 -0.591,2.979 -1.772,4.055c-1.181,1.076 -2.637,1.614 -4.369,1.614c-1.732,-0 -3.163,-0.565 -4.291,-1.693c-1.129,-1.129 -1.693,-2.454 -1.693,-3.976Z" style="fill:#635240;"/><path d="M190.734,346.736l8.976,0l-0,6.063l0.157,-0c0.893,-1.89 2.257,-3.53 4.095,-4.921c1.837,-1.391 4.33,-2.087 7.479,-2.087c2.52,0 4.658,0.42 6.417,1.26c1.758,0.84 3.189,1.942 4.291,3.307c1.102,1.365 1.889,2.939 2.362,4.724c0.472,1.784 0.708,3.648 0.708,5.59l0,23.856l-9.448,-0l0,-19.132c0,-1.05 -0.052,-2.218 -0.157,-3.504c-0.105,-1.286 -0.381,-2.493 -0.827,-3.621c-0.446,-1.129 -1.141,-2.074 -2.086,-2.835c-0.945,-0.761 -2.231,-1.141 -3.858,-1.141c-1.575,-0 -2.9,0.262 -3.976,0.787c-1.076,0.525 -1.968,1.233 -2.677,2.126c-0.709,0.892 -1.22,1.915 -1.535,3.07c-0.315,1.155 -0.473,2.362 -0.473,3.622l0,20.628l-9.448,-0l0,-37.792Z" style="fill:#635240;fill-rule:nonzero;"/><path d="M233.744,365.632c0,-2.992 0.538,-5.708 1.614,-8.149c1.076,-2.441 2.533,-4.527 4.37,-6.259c1.837,-1.732 4.015,-3.071 6.535,-4.015c2.519,-0.945 5.196,-1.418 8.031,-1.418c2.834,0 5.511,0.473 8.03,1.418c2.52,0.944 4.698,2.283 6.535,4.015c1.837,1.732 3.294,3.818 4.37,6.259c1.076,2.441 1.614,5.157 1.614,8.149c-0,2.992 -0.538,5.708 -1.614,8.149c-1.076,2.441 -2.533,4.527 -4.37,6.259c-1.837,1.732 -4.015,3.071 -6.535,4.015c-2.519,0.945 -5.196,1.418 -8.03,1.418c-2.835,-0 -5.512,-0.473 -8.031,-1.418c-2.52,-0.944 -4.698,-2.283 -6.535,-4.015c-1.837,-1.732 -3.294,-3.818 -4.37,-6.259c-1.076,-2.441 -1.614,-5.157 -1.614,-8.149Zm9.448,0c0,1.47 0.25,2.887 0.748,4.252c0.499,1.364 1.234,2.571 2.205,3.621c0.971,1.05 2.139,1.89 3.503,2.52c1.365,0.63 2.913,0.944 4.646,0.944c1.732,0 3.28,-0.314 4.645,-0.944c1.364,-0.63 2.532,-1.47 3.503,-2.52c0.971,-1.05 1.706,-2.257 2.205,-3.621c0.498,-1.365 0.748,-2.782 0.748,-4.252c-0,-1.47 -0.25,-2.887 -0.748,-4.252c-0.499,-1.364 -1.234,-2.571 -2.205,-3.621c-0.971,-1.05 -2.139,-1.89 -3.503,-2.52c-1.365,-0.63 -2.913,-0.944 -4.645,-0.944c-1.733,-0 -3.281,0.314 -4.646,0.944c-1.364,0.63 -2.532,1.47 -3.503,2.52c-0.971,1.05 -1.706,2.257 -2.205,3.621c-0.498,1.365 -0.748,2.782 -0.748,4.252Z" style="fill:#635240;fill-rule:nonzero;"/><path d="M278.543,346.736l10.393,0l10.55,26.218l0.157,0l9.448,-26.218l9.842,0l-17.872,45.901c-0.683,1.785 -1.431,3.346 -2.244,4.685c-0.814,1.338 -1.772,2.467 -2.874,3.385c-1.102,0.919 -2.401,1.601 -3.897,2.047c-1.496,0.447 -3.294,0.67 -5.393,0.67c-2.467,-0 -4.882,-0.315 -7.244,-0.945l1.181,-8.503c0.735,0.262 1.509,0.485 2.323,0.669c0.813,0.184 1.64,0.276 2.48,0.276c1.155,-0 2.126,-0.105 2.913,-0.315c0.787,-0.21 1.457,-0.538 2.008,-0.985c0.551,-0.446 1.01,-1.023 1.377,-1.732c0.368,-0.708 0.762,-1.561 1.181,-2.559l1.811,-4.487l-16.14,-38.107Z" style="fill:#635240;fill-rule:nonzero;"/><path d="M348.143,379.331l-0.237,0c-1.364,2.152 -3.096,3.714 -5.196,4.685c-2.099,0.971 -4.409,1.457 -6.928,1.457c-1.732,-0 -3.425,-0.237 -5.079,-0.709c-1.653,-0.472 -3.123,-1.181 -4.409,-2.126c-1.286,-0.945 -2.322,-2.126 -3.11,-3.543c-0.787,-1.417 -1.181,-3.07 -1.181,-4.96c0,-2.047 0.368,-3.792 1.103,-5.236c0.735,-1.443 1.719,-2.65 2.952,-3.621c1.234,-0.971 2.664,-1.746 4.291,-2.323c1.627,-0.577 3.32,-1.01 5.078,-1.299c1.759,-0.289 3.53,-0.472 5.315,-0.551c1.784,-0.079 3.464,-0.118 5.039,-0.118l2.362,-0l-0,-1.024c-0,-2.362 -0.814,-4.133 -2.441,-5.314c-1.627,-1.181 -3.7,-1.772 -6.22,-1.772c-1.994,0 -3.858,0.355 -5.59,1.063c-1.732,0.709 -3.228,1.667 -4.488,2.874l-4.96,-4.96c2.1,-2.152 4.554,-3.701 7.362,-4.645c2.808,-0.945 5.708,-1.418 8.7,-1.418c2.677,0 4.934,0.302 6.771,0.906c1.837,0.603 3.359,1.378 4.566,2.322c1.207,0.945 2.139,2.034 2.795,3.268c0.656,1.233 1.129,2.48 1.417,3.74c0.289,1.259 0.46,2.48 0.512,3.661c0.053,1.181 0.079,2.217 0.079,3.11l-0,21.73l-8.503,-0l-0,-5.197Zm-0.551,-11.731l-1.969,0c-1.312,0 -2.782,0.053 -4.409,0.158c-1.627,0.105 -3.162,0.354 -4.606,0.748c-1.443,0.393 -2.663,0.971 -3.661,1.732c-0.997,0.761 -1.496,1.824 -1.496,3.189c0,0.892 0.197,1.64 0.591,2.243c0.394,0.604 0.905,1.116 1.535,1.536c0.63,0.42 1.339,0.721 2.126,0.905c0.787,0.184 1.575,0.276 2.362,0.276c3.254,-0 5.656,-0.775 7.204,-2.323c1.548,-1.548 2.323,-3.661 2.323,-6.338l-0,-2.126Z" style="fill:#635240;fill-rule:nonzero;"/></g></svg>
